<svg xmlns="http://www.w3.org/2000/svg" width="390" height="844" viewBox="0 0 390 844" role="img" aria-labelledby="title desc">
  <title id="title">Live Coach screenshot placeholder</title>
  <desc id="desc">Placeholder for a PoseAI live coach screenshot.</desc>
  <rect width="390" height="844" rx="42" fill="#101214"/>
  <rect x="24" y="88" width="342" height="420" rx="28" fill="#1b2024"/>
  <circle cx="195" cy="178" r="28" fill="#f6f2e8"/>
  <path d="M195 206 L195 330 M135 265 L255 265 M135 265 L96 335 M255 265 L294 335 M195 330 L150 435 M195 330 L240 435" stroke="#5eead4" stroke-width="8" stroke-linecap="round"/>
  <circle cx="195" cy="206" r="7" fill="#ffffff"/>
  <circle cx="195" cy="330" r="7" fill="#ffffff"/>
  <circle cx="135" cy="265" r="7" fill="#ffffff"/>
  <circle cx="255" cy="265" r="7" fill="#ffffff"/>
  <rect x="24" y="544" width="342" height="84" rx="18" fill="#172a36"/>
  <text x="44" y="576" fill="#9fb1bd" font-family="Arial, sans-serif" font-size="14" font-weight="700">LIVE CUE</text>
  <text x="44" y="604" fill="#ffffff" font-family="Arial, sans-serif" font-size="20" font-weight="700">Hold the pose</text>
  <rect x="24" y="660" width="156" height="84" rx="18" fill="#1d2939"/>
  <rect x="210" y="660" width="156" height="84" rx="18" fill="#2a2514"/>
  <text x="64" y="716" fill="#ffffff" font-family="Arial, sans-serif" font-size="24" font-weight="700">82%</text>
  <text x="250" y="716" fill="#ffffff" font-family="Arial, sans-serif" font-size="24" font-weight="700">91%</text>
</svg>
